<svg xmlns="http://www.w3.org/2000/svg" enable-background="new 0 0 512 512" viewBox="0 0 512 512" id="badminton">
  <g>
    <g>
      <g>
        <path fill="#fff" d="M361.364,391.448l140.482-40.135c0,37.626-20.067,37.626-20.067,75.253l-61.517,12.547
				l-69.956-8.661L361.364,391.448z"></path>
        <path fill="#fff" d="M501.845,501.828l-140.482-40.135l-6.769-17.792l6.769-17.336h120.414
				C481.778,464.202,501.845,464.202,501.845,501.828z"></path>
        <polygon fill="#fff" points="238.151 243.651 238.131 243.661 138.784 343.008 144.102 364.16 168.975 373.199 268.322 273.852 268.332 273.832 258.113 254.479"></polygon>
        <path fill="#cfdefb" d="M361.364,461.694h-25.084c-19.398,0-35.128-15.73-35.128-35.128
				c0-19.398,15.73-35.118,35.128-35.118h25.084C361.364,399.749,361.364,453.411,361.364,461.694z"></path>
        <path fill="#fff" d="M171.743,375.968c6.806,6.806,6.806,17.849,0,24.654l-96.099,96.099
				c-6.816,6.806-17.849,6.806-24.654,0l-35.728-35.728c-6.806-6.806-6.806-17.839,0-24.654l96.099-96.099
				c6.806-6.806,17.849-6.806,24.654,0c3.92,3.92,25.987,25.987,32.959,32.959L171.743,375.968z"></path>
        <path fill="#cfdefb" d="M447.721,191.555c18.865-37.993,14.746-83.331-14.591-112.699
				c-37.331-37.331-101.537-34.318-143.4,7.545c-41.186,41.186-45.484,105.461-7.545,143.4
				C329.663,277.33,415.171,257.132,447.721,191.555z M463.321,48.665c54.186,54.186,50.808,145.418-7.555,203.782
				c-58.353,58.353-149.586,61.731-203.772,7.545s-50.808-145.418,7.545-203.782C317.892-2.143,409.125-5.521,463.321,48.665z"></path>
      </g>
      <g>
        <path fill="#477feb" d="M511.817 351.603c.165-6.82-6.315-11.699-12.737-9.877l-139.137 39.753h-23.687c-24.876 0-45.114 20.238-45.114 45.115 0 24.876 20.238 45.114 45.114 45.114h23.687l139.137 39.753c6.474 1.863 12.899-3.157 12.737-9.877-.05-21.137-5.976-32.255-11.208-42.065-4.754-8.912-8.859-16.61-8.859-32.926s4.106-24.014 8.859-32.927C505.841 383.857 511.767 372.74 511.817 351.603zM351.349 451.721h-15.093c-13.855 0-25.127-11.272-25.127-25.127 0-13.856 11.272-25.128 25.127-25.128h15.093V451.721zM371.336 399.011l119.289-34.083c-3.674 18.579-15.746 25.541-18.379 51.672h-100.91V399.011zM371.336 454.176v-17.589h100.91c2.632 26.124 14.708 33.107 18.38 51.671L371.336 454.176zM432.627 229.344c48.132-48.132 47.262-120.699 5.952-159.193-39.089-36.425-107.47-39.257-155.936 9.21-44.805 44.806-49.499 115.579-7.548 157.532C316.837 278.632 387.595 274.374 432.627 229.344zM396.65 232.069c-.045-.045-11.176-11.181-24.881-24.886l38.697-38.697 24.915 24.915C426.041 209.358 412.533 222.79 396.65 232.069zM357.636 193.049c-12.055-12.055-25.846-25.848-38.696-38.698l38.695-38.695 38.698 38.697L357.636 193.049zM444.207 173.959L424.6 154.352l23.647-23.647C450.252 144.328 449.09 159.263 444.207 173.959zM441.844 108.841l-31.378 31.378-38.698-38.697 31.369-31.369C420.371 77.957 434.016 91.554 441.844 108.841zM381.278 63.745l-23.643 23.643-19.61-19.61C352.576 62.943 367.518 61.712 381.278 63.745zM318.585 76.605l24.916 24.916-38.694 38.694c-10.531-10.532-19.47-19.471-24.881-24.883C289.318 99.243 302.855 85.823 318.585 76.605zM271.115 134.789c6.968 6.967 13.475 13.475 19.559 19.559l-23.604 23.604C265.001 163.883 266.378 149.06 271.115 134.789zM273.446 199.845l31.362-31.362c16.287 16.287 28.92 28.921 38.697 38.698l-31.381 31.381C295.39 231.008 281.495 217.68 273.446 199.845zM357.638 221.314c25.518 25.52 11.022 11.03 19.571 19.579-13.798 4.594-28.556 6.176-43.175 4.025L357.638 221.314z"></path>
        <path fill="#477feb" d="M462.816,259.533c61.79-61.79,66.146-159.31,7.547-217.909
				c-58.437-58.437-155.953-54.409-217.909,7.547c-54.012,54.012-63.637,134.895-27.183,193.222l-86.993,86.993
				c-10.593-6.668-24.785-5.402-34.002,3.813L8.175,429.301c-10.694,10.694-10.694,28.094,0,38.788l35.724,35.724
				c10.695,10.693,28.091,10.695,38.788,0l96.102-96.102c9.216-9.216,10.482-23.409,3.813-34.002l86.989-86.989
				C328.042,323.269,408.957,313.392,462.816,259.533z M164.654,393.578l-96.102,96.102c-2.9,2.901-7.62,2.901-10.521,0
				l-35.724-35.724c-2.901-2.901-2.901-7.62,0-10.521l96.102-96.102c2.901-2.901,7.62-2.901,10.521,0
				c3.34,3.341,32.323,32.323,35.724,35.724C167.555,385.957,167.555,390.677,164.654,393.578z M168.954,359.089l-16.055-16.055
				l84.306-84.306c4.911,5.78,10.274,11.143,16.055,16.056L168.954,359.089z M266.588,63.305
				C395.991-66.098,579.38,114.702,448.682,245.399c-54.754,54.756-139.797,57.394-189.642,7.548
				C208.836,202.743,212.222,117.669,266.588,63.305z"></path>
      </g>
    </g>
  </g>
</svg>
